<svg width="702" height="510" viewBox="0 0 702 510" fill="none" xmlns="http://www.w3.org/2000/svg">
<path d="M408.577 89.907C421.722 89.907 432.379 79.2532 432.379 66.1111C432.379 52.969 421.722 42.3152 408.577 42.3152C395.431 42.3152 384.774 52.969 384.774 66.1111C384.774 79.2532 395.431 89.907 408.577 89.907Z" fill="#F2F2F2"/>
<path d="M593.222 443.065C628.602 416.125 645.5 370.855 634.921 327.67C634.658 326.597 634.381 325.526 634.089 324.458C627.075 298.824 609.724 274.461 584.434 266.27C563.2 259.393 540.022 264.681 517.869 261.946C474.383 256.578 440.668 221.402 416.946 184.572C393.223 147.743 374.992 106.518 343.47 76.091C291.511 25.9381 206.754 15.1401 142.332 47.7859C77.9109 80.4319 36.8752 152.86 38.6253 225.043C40.3754 297.226 83.2397 366.238 145.489 402.854C168.357 416.305 194.806 425.834 221.128 422.499C243.968 419.606 264.72 407.337 287.452 403.695C323.192 397.969 358.704 414.123 389.616 432.948C420.528 451.773 450.387 474.086 485.515 482.813C519.623 491.287 561.881 466.93 593.222 443.065Z" fill="#F2F2F2"/>
<path d="M542.389 49.3016C541.614 48.7847 540.829 48.2945 540.054 47.7954C517.634 33.461 493.604 21.816 468.46 13.1007L462.63 93.5054H425.67V1.36355C423.343 0.882294 420.999 0.427779 418.654 0V93.5054H374.732C350.552 93.5054 327.363 83.9028 310.265 66.8101C293.167 49.7173 283.562 26.5346 283.562 2.3618V2.36172C281.208 2.86971 278.873 3.41335 276.537 3.99263V93.5054H240.763L235.209 16.8349C209.37 26.7418 184.839 39.7699 162.162 55.6292C161.77 55.8965 161.378 56.1728 160.995 56.4401C159.024 57.8215 157.081 59.2296 155.147 60.6556V367.4H260.58L258.717 341.6L248.465 199.942H454.919L444.667 341.6L442.804 367.4H547.069V52.403C545.518 51.3514 543.958 50.3176 542.389 49.3016ZM276.537 176.548H246.771L241.271 100.528H276.537V176.548ZM418.654 176.548H368.661V175.042C368.661 174.318 368.518 173.601 368.241 172.932C367.963 172.263 367.557 171.656 367.044 171.144C366.532 170.633 365.923 170.227 365.254 169.951C364.584 169.675 363.867 169.533 363.143 169.534H341.409C340.685 169.534 339.969 169.676 339.3 169.953C338.632 170.23 338.024 170.635 337.513 171.147C337.001 171.658 336.595 172.266 336.318 172.934C336.042 173.602 335.899 174.319 335.9 175.042V176.548H283.562V100.528H418.654V176.548ZM425.67 176.548V100.528H462.122L456.622 176.548H425.67Z" fill="#3F3D56"/>
<path d="M0 387.043C7.74436 396.217 16.1208 404.838 25.0679 412.843L676.353 413.735C685.3 405.729 693.676 397.108 701.421 387.934L0 387.043Z" fill="#3F3D56"/>
<path d="M441.657 304.429V380.809C441.658 381.782 442.045 382.715 442.734 383.404C443.422 384.092 444.356 384.479 445.329 384.48H558.549C559.523 384.479 560.456 384.092 561.145 383.404C561.833 382.715 562.22 381.782 562.221 380.809V304.429C562.219 303.456 561.831 302.524 561.143 301.837C560.455 301.15 559.522 300.763 558.549 300.762H445.329C444.357 300.763 443.424 301.15 442.736 301.837C442.047 302.524 441.66 303.456 441.657 304.429V304.429Z" fill="#3F3D56"/>
<path d="M444.314 305.379V379.866C444.314 380.386 444.522 380.885 444.889 381.253C445.257 381.62 445.756 381.827 446.276 381.828H557.607C558.127 381.827 558.626 381.62 558.993 381.253C559.361 380.885 559.568 380.386 559.569 379.866V305.379C559.569 304.858 559.363 304.359 558.995 303.99C558.627 303.622 558.128 303.414 557.607 303.413H446.276C445.755 303.414 445.256 303.622 444.888 303.99C444.52 304.359 444.314 304.858 444.314 305.379V305.379Z" fill="#313BAC"/>
<path d="M439.29 395.705C439.497 395.965 439.761 396.174 440.061 396.318C440.361 396.461 440.689 396.535 441.022 396.533H562.254C562.585 396.533 562.913 396.459 563.212 396.316C563.511 396.173 563.775 395.966 563.984 395.708C564.192 395.451 564.341 395.15 564.419 394.828C564.497 394.506 564.502 394.17 564.434 393.846L562.553 384.909C562.475 384.545 562.307 384.206 562.064 383.923C561.821 383.64 561.512 383.422 561.164 383.289C560.911 383.19 560.643 383.14 560.372 383.14H442.897C442.626 383.14 442.357 383.19 442.105 383.289C441.757 383.422 441.447 383.64 441.204 383.923C440.962 384.206 440.794 384.545 440.716 384.909L438.834 393.846C438.767 394.17 438.773 394.505 438.852 394.827C438.931 395.148 439.08 395.448 439.29 395.705V395.705Z" fill="#2F2E41"/>
<path d="M556.212 386.989H559.076C559.316 386.989 559.511 386.794 559.511 386.554V385.185C559.511 384.944 559.316 384.749 559.076 384.749H556.212C555.972 384.749 555.777 384.944 555.777 385.185V386.554C555.777 386.794 555.972 386.989 556.212 386.989Z" fill="#3F3D56"/>
<path d="M548.744 386.989H551.608C551.848 386.989 552.043 386.794 552.043 386.554V385.185C552.043 384.944 551.848 384.749 551.608 384.749H548.744C548.504 384.749 548.309 384.944 548.309 385.185V386.554C548.309 386.794 548.504 386.989 548.744 386.989Z" fill="#3F3D56"/>
<path d="M541.277 386.989H544.14C544.381 386.989 544.575 386.794 544.575 386.554V385.185C544.575 384.944 544.381 384.749 544.14 384.749H541.277C541.036 384.749 540.841 384.944 540.841 385.185V386.554C540.841 386.794 541.036 386.989 541.277 386.989Z" fill="#3F3D56"/>
<path d="M533.809 386.989H536.672C536.913 386.989 537.108 386.794 537.108 386.554V385.185C537.108 384.944 536.913 384.749 536.672 384.749H533.809C533.569 384.749 533.374 384.944 533.374 385.185V386.554C533.374 386.794 533.569 386.989 533.809 386.989Z" fill="#3F3D56"/>
<path d="M526.341 386.989H529.205C529.445 386.989 529.64 386.794 529.64 386.554V385.185C529.64 384.944 529.445 384.749 529.205 384.749H526.341C526.101 384.749 525.906 384.944 525.906 385.185V386.554C525.906 386.794 526.101 386.989 526.341 386.989Z" fill="#3F3D56"/>
<path d="M518.873 386.989H521.737C521.977 386.989 522.172 386.794 522.172 386.554V385.185C522.172 384.944 521.977 384.749 521.737 384.749H518.873C518.633 384.749 518.438 384.944 518.438 385.185V386.554C518.438 386.794 518.633 386.989 518.873 386.989Z" fill="#3F3D56"/>
<path d="M511.406 386.989H514.269C514.509 386.989 514.704 386.794 514.704 386.554V385.185C514.704 384.944 514.509 384.749 514.269 384.749H511.406C511.165 384.749 510.97 384.944 510.97 385.185V386.554C510.97 386.794 511.165 386.989 511.406 386.989Z" fill="#3F3D56"/>
<path d="M503.938 386.989H506.801C507.042 386.989 507.237 386.794 507.237 386.554V385.185C507.237 384.944 507.042 384.749 506.801 384.749H503.938C503.697 384.749 503.503 384.944 503.503 385.185V386.554C503.503 386.794 503.697 386.989 503.938 386.989Z" fill="#3F3D56"/>
<path d="M496.47 386.989H499.334C499.574 386.989 499.769 386.794 499.769 386.554V385.185C499.769 384.944 499.574 384.749 499.334 384.749H496.47C496.23 384.749 496.035 384.944 496.035 385.185V386.554C496.035 386.794 496.23 386.989 496.47 386.989Z" fill="#3F3D56"/>
<path d="M489.002 386.989H491.866C492.106 386.989 492.301 386.794 492.301 386.554V385.185C492.301 384.944 492.106 384.749 491.866 384.749H489.002C488.762 384.749 488.567 384.944 488.567 385.185V386.554C488.567 386.794 488.762 386.989 489.002 386.989Z" fill="#3F3D56"/>
<path d="M481.535 386.989H484.398C484.638 386.989 484.833 386.794 484.833 386.554V385.185C484.833 384.944 484.638 384.749 484.398 384.749H481.535C481.294 384.749 481.099 384.944 481.099 385.185V386.554C481.099 386.794 481.294 386.989 481.535 386.989Z" fill="#3F3D56"/>
<path d="M474.067 386.989H476.93C477.171 386.989 477.366 386.794 477.366 386.554V385.185C477.366 384.944 477.171 384.749 476.93 384.749H474.067C473.826 384.749 473.632 384.944 473.632 385.185V386.554C473.632 386.794 473.826 386.989 474.067 386.989Z" fill="#3F3D56"/>
<path d="M466.599 386.989H469.462C469.703 386.989 469.898 386.794 469.898 386.554V385.185C469.898 384.944 469.703 384.749 469.462 384.749H466.599C466.359 384.749 466.164 384.944 466.164 385.185V386.554C466.164 386.794 466.359 386.989 466.599 386.989Z" fill="#3F3D56"/>
<path d="M459.131 386.989H461.995C462.235 386.989 462.43 386.794 462.43 386.554V385.185C462.43 384.944 462.235 384.749 461.995 384.749H459.131C458.891 384.749 458.696 384.944 458.696 385.185V386.554C458.696 386.794 458.891 386.989 459.131 386.989Z" fill="#3F3D56"/>
<path d="M451.664 386.989H454.527C454.767 386.989 454.962 386.794 454.962 386.554V385.185C454.962 384.944 454.767 384.749 454.527 384.749H451.664C451.423 384.749 451.228 384.944 451.228 385.185V386.554C451.228 386.794 451.423 386.989 451.664 386.989Z" fill="#3F3D56"/>
<path d="M444.196 386.989H447.059C447.3 386.989 447.494 386.794 447.494 386.554V385.185C447.494 384.944 447.3 384.749 447.059 384.749H444.196C443.955 384.749 443.761 384.944 443.761 385.185V386.554C443.761 386.794 443.955 386.989 444.196 386.989Z" fill="#3F3D56"/>
<path d="M556.3 390.722H559.164C559.404 390.722 559.599 390.527 559.599 390.287V388.917C559.599 388.677 559.404 388.482 559.164 388.482H556.3C556.06 388.482 555.865 388.677 555.865 388.917V390.287C555.865 390.527 556.06 390.722 556.3 390.722Z" fill="#3F3D56"/>
<path d="M548.833 390.722H551.696C551.937 390.722 552.131 390.527 552.131 390.287V388.917C552.131 388.677 551.937 388.482 551.696 388.482H548.833C548.592 388.482 548.398 388.677 548.398 388.917V390.287C548.398 390.527 548.592 390.722 548.833 390.722Z" fill="#3F3D56"/>
<path d="M541.365 390.722H544.228C544.469 390.722 544.664 390.527 544.664 390.287V388.917C544.664 388.677 544.469 388.482 544.228 388.482H541.365C541.125 388.482 540.93 388.677 540.93 388.917V390.287C540.93 390.527 541.125 390.722 541.365 390.722Z" fill="#3F3D56"/>
<path d="M533.897 390.722H536.761C537.001 390.722 537.196 390.527 537.196 390.287V388.917C537.196 388.677 537.001 388.482 536.761 388.482H533.897C533.657 388.482 533.462 388.677 533.462 388.917V390.287C533.462 390.527 533.657 390.722 533.897 390.722Z" fill="#3F3D56"/>
<path d="M526.429 390.722H529.293C529.533 390.722 529.728 390.527 529.728 390.287V388.917C529.728 388.677 529.533 388.482 529.293 388.482H526.429C526.189 388.482 525.994 388.677 525.994 388.917V390.287C525.994 390.527 526.189 390.722 526.429 390.722Z" fill="#3F3D56"/>
<path d="M518.962 390.722H521.825C522.065 390.722 522.26 390.527 522.26 390.287V388.917C522.26 388.677 522.065 388.482 521.825 388.482H518.962C518.721 388.482 518.526 388.677 518.526 388.917V390.287C518.526 390.527 518.721 390.722 518.962 390.722Z" fill="#3F3D56"/>
<path d="M511.494 390.722H514.357C514.598 390.722 514.793 390.527 514.793 390.287V388.917C514.793 388.677 514.598 388.482 514.357 388.482H511.494C511.254 388.482 511.059 388.677 511.059 388.917V390.287C511.059 390.527 511.254 390.722 511.494 390.722Z" fill="#3F3D56"/>
<path d="M504.026 390.722H506.89C507.13 390.722 507.325 390.527 507.325 390.287V388.917C507.325 388.677 507.13 388.482 506.89 388.482H504.026C503.786 388.482 503.591 388.677 503.591 388.917V390.287C503.591 390.527 503.786 390.722 504.026 390.722Z" fill="#3F3D56"/>
<path d="M496.558 390.722H499.422C499.662 390.722 499.857 390.527 499.857 390.287V388.917C499.857 388.677 499.662 388.482 499.422 388.482H496.558C496.318 388.482 496.123 388.677 496.123 388.917V390.287C496.123 390.527 496.318 390.722 496.558 390.722Z" fill="#3F3D56"/>
<path d="M489.091 390.722H491.954C492.194 390.722 492.389 390.527 492.389 390.287V388.917C492.389 388.677 492.194 388.482 491.954 388.482H489.091C488.85 388.482 488.655 388.677 488.655 388.917V390.287C488.655 390.527 488.85 390.722 489.091 390.722Z" fill="#3F3D56"/>
<path d="M481.623 390.722H484.486C484.727 390.722 484.921 390.527 484.921 390.287V388.917C484.921 388.677 484.727 388.482 484.486 388.482H481.623C481.382 388.482 481.188 388.677 481.188 388.917V390.287C481.188 390.527 481.382 390.722 481.623 390.722Z" fill="#3F3D56"/>
<path d="M474.155 390.722H477.019C477.259 390.722 477.454 390.527 477.454 390.287V388.917C477.454 388.677 477.259 388.482 477.019 388.482H474.155C473.915 388.482 473.72 388.677 473.72 388.917V390.287C473.72 390.527 473.915 390.722 474.155 390.722Z" fill="#3F3D56"/>
<path d="M466.687 390.722H469.551C469.791 390.722 469.986 390.527 469.986 390.287V388.917C469.986 388.677 469.791 388.482 469.551 388.482H466.687C466.447 388.482 466.252 388.677 466.252 388.917V390.287C466.252 390.527 466.447 390.722 466.687 390.722Z" fill="#3F3D56"/>
<path d="M459.22 390.722H462.083C462.323 390.722 462.518 390.527 462.518 390.287V388.917C462.518 388.677 462.323 388.482 462.083 388.482H459.22C458.979 388.482 458.784 388.677 458.784 388.917V390.287C458.784 390.527 458.979 390.722 459.22 390.722Z" fill="#3F3D56"/>
<path d="M451.752 390.722H454.615C454.856 390.722 455.05 390.527 455.05 390.287V388.917C455.05 388.677 454.856 388.482 454.615 388.482H451.752C451.511 388.482 451.317 388.677 451.317 388.917V390.287C451.317 390.527 451.511 390.722 451.752 390.722Z" fill="#3F3D56"/>
<path d="M444.284 390.722H447.147C447.388 390.722 447.583 390.527 447.583 390.287V388.917C447.583 388.677 447.388 388.482 447.147 388.482H444.284C444.044 388.482 443.849 388.677 443.849 388.917V390.287C443.849 390.527 444.044 390.722 444.284 390.722Z" fill="#3F3D56"/>
<path d="M494.318 395.201H523.319C523.559 395.201 523.754 395.006 523.754 394.766V393.397C523.754 393.156 523.559 392.961 523.319 392.961H494.318C494.078 392.961 493.883 393.156 493.883 393.397V394.766C493.883 395.006 494.078 395.201 494.318 395.201Z" fill="#3F3D56"/>
<path d="M463.593 319.709H461.058C460.289 319.709 459.666 320.332 459.666 321.1C459.666 321.869 460.289 322.491 461.058 322.491H463.593C464.361 322.491 464.984 321.869 464.984 321.1C464.984 320.332 464.361 319.709 463.593 319.709Z" fill="white"/>
<path d="M492.586 319.709H490.051C489.282 319.709 488.659 320.332 488.659 321.1C488.659 321.869 489.282 322.491 490.051 322.491H492.586C493.354 322.491 493.977 321.869 493.977 321.1C493.977 320.332 493.354 319.709 492.586 319.709Z" fill="white"/>
<path d="M500.8 319.709H498.265C497.497 319.709 496.874 320.332 496.874 321.1C496.874 321.869 497.497 322.491 498.265 322.491H500.8C501.569 322.491 502.192 321.869 502.192 321.1C502.192 320.332 501.569 319.709 500.8 319.709Z" fill="white"/>
<path d="M484.7 319.477H468.944C468.175 319.477 467.552 320.1 467.552 320.868C467.552 321.636 468.175 322.259 468.944 322.259H484.7C485.468 322.259 486.091 321.636 486.091 320.868C486.091 320.1 485.468 319.477 484.7 319.477Z" fill="white"/>
<path d="M523.357 319.477H507.601C506.833 319.477 506.21 320.1 506.21 320.868C506.21 321.636 506.833 322.259 507.601 322.259H523.357C524.126 322.259 524.749 321.636 524.749 320.868C524.749 320.1 524.126 319.477 523.357 319.477Z" fill="white"/>
<path d="M471.324 325.989H468.789C468.021 325.989 467.397 326.612 467.397 327.38C467.397 328.148 468.021 328.771 468.789 328.771H471.324C472.093 328.771 472.716 328.148 472.716 327.38C472.716 326.612 472.093 325.989 471.324 325.989Z" fill="white"/>
<path d="M500.317 325.989H497.782C497.014 325.989 496.391 326.612 496.391 327.38C496.391 328.148 497.014 328.771 497.782 328.771H500.317C501.086 328.771 501.709 328.148 501.709 327.38C501.709 326.612 501.086 325.989 500.317 325.989Z" fill="white"/>
<path d="M508.532 325.989H505.997C505.228 325.989 504.605 326.612 504.605 327.38C504.605 328.148 505.228 328.771 505.997 328.771H508.532C509.301 328.771 509.924 328.148 509.924 327.38C509.924 326.612 509.301 325.989 508.532 325.989Z" fill="white"/>
<path d="M492.431 325.757H476.675C475.907 325.757 475.284 326.38 475.284 327.148C475.284 327.916 475.907 328.539 476.675 328.539H492.431C493.2 328.539 493.823 327.916 493.823 327.148C493.823 326.38 493.2 325.757 492.431 325.757Z" fill="white"/>
<path d="M531.088 325.757H515.333C514.564 325.757 513.941 326.38 513.941 327.148C513.941 327.916 514.564 328.539 515.333 328.539H531.088C531.857 328.539 532.48 327.916 532.48 327.148C532.48 326.38 531.857 325.757 531.088 325.757Z" fill="white"/>
<path d="M479.056 332.269H476.521C475.752 332.269 475.129 332.892 475.129 333.66C475.129 334.429 475.752 335.052 476.521 335.052H479.056C479.824 335.052 480.447 334.429 480.447 333.66C480.447 332.892 479.824 332.269 479.056 332.269Z" fill="white"/>
<path d="M508.049 332.269H505.514C504.745 332.269 504.122 332.892 504.122 333.66C504.122 334.429 504.745 335.052 505.514 335.052H508.049C508.817 335.052 509.44 334.429 509.44 333.66C509.44 332.892 508.817 332.269 508.049 332.269Z" fill="white"/>
<path d="M516.264 332.269H513.729C512.96 332.269 512.337 332.892 512.337 333.66C512.337 334.429 512.96 335.052 513.729 335.052H516.264C517.032 335.052 517.655 334.429 517.655 333.66C517.655 332.892 517.032 332.269 516.264 332.269Z" fill="white"/>
<path d="M500.163 332.037H484.407C483.638 332.037 483.015 332.66 483.015 333.428C483.015 334.197 483.638 334.82 484.407 334.82H500.163C500.931 334.82 501.554 334.197 501.554 333.428C501.554 332.66 500.931 332.037 500.163 332.037Z" fill="white"/>
<path d="M538.82 332.037H523.064C522.296 332.037 521.673 332.66 521.673 333.428C521.673 334.197 522.296 334.82 523.064 334.82H538.82C539.589 334.82 540.212 334.197 540.212 333.428C540.212 332.66 539.589 332.037 538.82 332.037Z" fill="white"/>
<path d="M486.787 338.549H484.252C483.484 338.549 482.86 339.172 482.86 339.94C482.86 340.709 483.484 341.332 484.252 341.332H486.787C487.556 341.332 488.179 340.709 488.179 339.94C488.179 339.172 487.556 338.549 486.787 338.549Z" fill="white"/>
<path d="M515.78 338.549H513.245C512.477 338.549 511.854 339.172 511.854 339.94C511.854 340.709 512.477 341.332 513.245 341.332H515.78C516.549 341.332 517.172 340.709 517.172 339.94C517.172 339.172 516.549 338.549 515.78 338.549Z" fill="white"/>
<path d="M523.995 338.549H521.46C520.691 338.549 520.068 339.172 520.068 339.94C520.068 340.709 520.691 341.332 521.46 341.332H523.995C524.763 341.332 525.387 340.709 525.387 339.94C525.387 339.172 524.763 338.549 523.995 338.549Z" fill="white"/>
<path d="M507.894 338.317H492.138C491.37 338.317 490.747 338.94 490.747 339.708C490.747 340.476 491.37 341.099 492.138 341.099H507.894C508.663 341.099 509.286 340.476 509.286 339.708C509.286 338.94 508.663 338.317 507.894 338.317Z" fill="white"/>
<path d="M492.586 363.521H490.051C489.282 363.521 488.659 364.144 488.659 364.912C488.659 365.681 489.282 366.303 490.051 366.303H492.586C493.354 366.303 493.977 365.681 493.977 364.912C493.977 364.144 493.354 363.521 492.586 363.521Z" fill="white"/>
<path d="M500.8 363.521H498.265C497.497 363.521 496.874 364.144 496.874 364.912C496.874 365.681 497.497 366.303 498.265 366.303H500.8C501.569 366.303 502.192 365.681 502.192 364.912C502.192 364.144 501.569 363.521 500.8 363.521Z" fill="white"/>
<path d="M523.357 363.753H507.601C506.833 363.753 506.21 364.376 506.21 365.144C506.21 365.913 506.833 366.535 507.601 366.535H523.357C524.126 366.535 524.749 365.913 524.749 365.144C524.749 364.376 524.126 363.753 523.357 363.753Z" fill="white"/>
<path d="M463.593 363.521H461.058C460.289 363.521 459.666 364.144 459.666 364.912C459.666 365.681 460.289 366.303 461.058 366.303H463.593C464.361 366.303 464.984 365.681 464.984 364.912C464.984 364.144 464.361 363.521 463.593 363.521Z" fill="white"/>
<path d="M484.7 363.753H468.944C468.175 363.753 467.552 364.376 467.552 365.144C467.552 365.913 468.175 366.535 468.944 366.535H484.7C485.468 366.535 486.091 365.913 486.091 365.144C486.091 364.376 485.468 363.753 484.7 363.753Z" fill="white"/>
<path d="M471.324 357.241H468.789C468.021 357.241 467.397 357.864 467.397 358.632C467.397 359.401 468.021 360.023 468.789 360.023H471.324C472.093 360.023 472.716 359.401 472.716 358.632C472.716 357.864 472.093 357.241 471.324 357.241Z" fill="white"/>
<path d="M500.317 357.241H497.782C497.014 357.241 496.391 357.864 496.391 358.632C496.391 359.401 497.014 360.023 497.782 360.023H500.317C501.086 360.023 501.709 359.401 501.709 358.632C501.709 357.864 501.086 357.241 500.317 357.241Z" fill="white"/>
<path d="M508.532 357.241H505.997C505.228 357.241 504.605 357.864 504.605 358.632C504.605 359.401 505.228 360.023 505.997 360.023H508.532C509.301 360.023 509.924 359.401 509.924 358.632C509.924 357.864 509.301 357.241 508.532 357.241Z" fill="white"/>
<path d="M492.431 357.473H476.675C475.907 357.473 475.284 358.096 475.284 358.864C475.284 359.633 475.907 360.255 476.675 360.255H492.431C493.2 360.255 493.823 359.633 493.823 358.864C493.823 358.096 493.2 357.473 492.431 357.473Z" fill="white"/>
<path d="M479.056 350.961H476.521C475.752 350.961 475.129 351.584 475.129 352.352C475.129 353.121 475.752 353.744 476.521 353.744H479.056C479.824 353.744 480.447 353.121 480.447 352.352C480.447 351.584 479.824 350.961 479.056 350.961Z" fill="white"/>
<path d="M508.049 350.961H505.514C504.745 350.961 504.122 351.584 504.122 352.352C504.122 353.121 504.745 353.744 505.514 353.744H508.049C508.817 353.744 509.44 353.121 509.44 352.352C509.44 351.584 508.817 350.961 508.049 350.961Z" fill="white"/>
<path d="M516.264 350.961H513.729C512.96 350.961 512.337 351.584 512.337 352.352C512.337 353.121 512.96 353.744 513.729 353.744H516.264C517.032 353.744 517.655 353.121 517.655 352.352C517.655 351.584 517.032 350.961 516.264 350.961Z" fill="white"/>
<path d="M500.163 351.193H484.407C483.638 351.193 483.015 351.816 483.015 352.584C483.015 353.352 483.638 353.975 484.407 353.975H500.163C500.931 353.975 501.554 353.352 501.554 352.584C501.554 351.816 500.931 351.193 500.163 351.193Z" fill="white"/>
<path d="M486.787 344.681H484.252C483.484 344.681 482.86 345.304 482.86 346.072C482.86 346.841 483.484 347.464 484.252 347.464H486.787C487.556 347.464 488.179 346.841 488.179 346.072C488.179 345.304 487.556 344.681 486.787 344.681Z" fill="white"/>
<path d="M515.78 344.681H513.245C512.477 344.681 511.854 345.304 511.854 346.072C511.854 346.841 512.477 347.464 513.245 347.464H515.78C516.549 347.464 517.172 346.841 517.172 346.072C517.172 345.304 516.549 344.681 515.78 344.681Z" fill="white"/>
<path d="M523.995 344.681H521.46C520.691 344.681 520.068 345.304 520.068 346.072C520.068 346.841 520.691 347.464 521.46 347.464H523.995C524.763 347.464 525.387 346.841 525.387 346.072C525.387 345.304 524.763 344.681 523.995 344.681Z" fill="white"/>
<path d="M507.894 344.913H492.138C491.37 344.913 490.747 345.536 490.747 346.304C490.747 347.073 491.37 347.695 492.138 347.695H507.894C508.663 347.695 509.286 347.073 509.286 346.304C509.286 345.536 508.663 344.913 507.894 344.913Z" fill="white"/>
<path d="M450.115 437.12L438.214 418.315L475.569 388.546L490.987 371.469C492.99 369.251 495.54 367.597 498.383 366.672C501.226 365.748 504.262 365.585 507.187 366.201C510.113 366.817 512.825 368.19 515.053 370.182C517.282 372.174 518.948 374.717 519.886 377.554C521.276 381.76 520.977 386.34 519.053 390.329C517.128 394.319 513.729 397.404 509.572 398.935L485.191 407.915L450.115 437.12Z" fill="#FFB6B6"/>
<path d="M170.885 300.765V392.167H234.936V300.765C234.937 300.108 234.727 299.467 234.337 298.938C233.948 298.409 233.398 298.018 232.77 297.824C232.474 297.726 232.164 297.678 231.852 297.682H173.978C173.572 297.681 173.17 297.76 172.795 297.915C172.42 298.069 172.079 298.296 171.792 298.582C171.505 298.869 171.277 299.209 171.121 299.583C170.965 299.958 170.885 300.36 170.885 300.765V300.765ZM195.881 332.171C195.898 330.369 196.626 328.647 197.906 327.379C199.187 326.11 200.916 325.399 202.719 325.399C204.521 325.399 206.251 326.11 207.531 327.379C208.812 328.647 209.539 330.369 209.556 332.171V342.777C209.547 344.583 208.823 346.313 207.541 347.588C206.26 348.862 204.526 349.577 202.719 349.577C200.911 349.577 199.177 348.862 197.896 347.588C196.615 346.313 195.89 344.583 195.881 342.777V332.171Z" fill="#2F2E41"/>
<path d="M170.688 389.244V398.058C170.69 398.515 170.871 398.953 171.193 399.276C171.516 399.6 171.952 399.784 172.409 399.787H233.412C233.869 399.785 234.307 399.602 234.629 399.278C234.951 398.954 235.132 398.515 235.132 398.058V389.244H170.688Z" fill="#3F3D56"/>
<path d="M70.1225 163.056V329.943C70.1242 332.07 70.97 334.109 72.4743 335.613C73.9786 337.117 76.0183 337.963 78.1457 337.964H325.527C327.654 337.963 329.694 337.117 331.198 335.613C332.702 334.109 333.548 332.07 333.55 329.943V163.056C333.545 160.931 332.698 158.895 331.194 157.393C329.69 155.892 327.652 155.047 325.527 155.044H78.1457C76.0202 155.047 73.9824 155.892 72.4786 157.393C70.9748 158.895 70.1276 160.931 70.1225 163.056Z" fill="#3F3D56"/>
<path d="M75.9259 165.133V327.885C75.9279 329.021 76.3802 330.11 77.184 330.914C77.9877 331.717 79.0772 332.169 80.2138 332.171H323.467C324.604 332.169 325.693 331.717 326.497 330.914C327.301 330.11 327.753 329.021 327.755 327.885V165.133C327.755 163.995 327.304 162.904 326.5 162.098C325.696 161.293 324.605 160.839 323.467 160.837H80.2138C79.0758 160.839 77.9853 161.293 77.1814 162.098C76.3775 162.904 75.926 163.995 75.9259 165.133Z" fill="white"/>
<path d="M121.07 399.19C121.317 399.501 121.632 399.751 121.99 399.922C122.348 400.093 122.741 400.181 123.138 400.179H267.858C268.254 400.179 268.644 400.09 269.002 399.92C269.359 399.749 269.673 399.502 269.923 399.194C270.172 398.887 270.35 398.528 270.443 398.143C270.536 397.759 270.542 397.358 270.461 396.971L268.214 386.303C268.121 385.868 267.921 385.463 267.631 385.126C267.342 384.788 266.972 384.528 266.556 384.369C266.255 384.251 265.935 384.191 265.611 384.191H125.375C125.052 384.191 124.731 384.251 124.43 384.369C124.015 384.528 123.645 384.788 123.355 385.126C123.066 385.463 122.865 385.868 122.772 386.303L120.526 396.971C120.446 397.358 120.453 397.758 120.547 398.142C120.641 398.526 120.82 398.884 121.07 399.19Z" fill="#2F2E41"/>
<path d="M315.573 183.257H87.9616C87.725 183.252 87.4999 183.154 87.3345 182.985C87.169 182.816 87.0764 182.588 87.0764 182.352C87.0764 182.115 87.169 181.888 87.3345 181.719C87.4999 181.55 87.725 181.452 87.9616 181.447H315.573C315.81 181.452 316.035 181.55 316.2 181.719C316.366 181.888 316.458 182.115 316.458 182.352C316.458 182.588 316.366 182.816 316.2 182.985C316.035 183.154 315.81 183.252 315.573 183.257V183.257Z" fill="#3F3D56"/>
<path d="M103.455 176.827C106.385 176.827 108.76 174.399 108.76 171.405C108.76 168.411 106.385 165.984 103.455 165.984C100.526 165.984 98.1509 168.411 98.1509 171.405C98.1509 174.399 100.526 176.827 103.455 176.827Z" fill="#3F3D56"/>
<path d="M121.78 176.827C124.71 176.827 127.085 174.399 127.085 171.405C127.085 168.411 124.71 165.984 121.78 165.984C118.851 165.984 116.476 168.411 116.476 171.405C116.476 174.399 118.851 176.827 121.78 176.827Z" fill="#3F3D56"/>
<path d="M140.105 176.827C143.035 176.827 145.41 174.399 145.41 171.405C145.41 168.411 143.035 165.984 140.105 165.984C137.176 165.984 134.801 168.411 134.801 171.405C134.801 174.399 137.176 176.827 140.105 176.827Z" fill="#3F3D56"/>
<path d="M304.538 167.325H291.523C291.266 167.331 291.021 167.437 290.841 167.621C290.661 167.805 290.561 168.052 290.561 168.309C290.561 168.567 290.661 168.814 290.841 168.998C291.021 169.182 291.266 169.288 291.523 169.294H304.538C304.797 169.291 305.044 169.185 305.226 169.001C305.408 168.817 305.51 168.568 305.51 168.309C305.51 168.051 305.408 167.802 305.226 167.618C305.044 167.434 304.797 167.328 304.538 167.325Z" fill="#3F3D56"/>
<path d="M304.538 171.023H291.523C291.265 171.029 291.02 171.135 290.84 171.319C290.66 171.504 290.559 171.751 290.559 172.008C290.559 172.266 290.66 172.513 290.84 172.697C291.02 172.881 291.265 172.987 291.523 172.993H304.538C304.798 172.99 305.045 172.885 305.227 172.7C305.409 172.516 305.512 172.267 305.512 172.008C305.512 171.749 305.409 171.5 305.227 171.316C305.045 171.132 304.798 171.027 304.538 171.023V171.023Z" fill="#3F3D56"/>
<path d="M304.538 174.722H291.523C291.266 174.728 291.021 174.834 290.841 175.018C290.661 175.202 290.561 175.449 290.561 175.706C290.561 175.964 290.661 176.211 290.841 176.395C291.021 176.579 291.266 176.685 291.523 176.691H304.538C304.797 176.688 305.044 176.582 305.226 176.398C305.408 176.214 305.51 175.965 305.51 175.706C305.51 175.448 305.408 175.199 305.226 175.015C305.044 174.831 304.797 174.725 304.538 174.722V174.722Z" fill="#3F3D56"/>
<path d="M618.315 393.112C618.708 394.256 619.453 395.245 620.443 395.938C621.433 396.632 622.618 396.994 623.827 396.972L647.443 396.365C648.661 396.341 649.839 395.924 650.8 395.176C651.761 394.428 652.454 393.389 652.775 392.214L656.117 356.488C657.303 357.025 658.594 357.29 659.895 357.264C661.026 357.236 662.14 356.985 663.174 356.526C664.207 356.068 665.141 355.41 665.92 354.59C666.699 353.771 667.31 352.806 667.716 351.751C668.123 350.696 668.317 349.571 668.289 348.441C668.261 347.31 668.01 346.197 667.551 345.163C667.092 344.13 666.434 343.197 665.614 342.418C664.795 341.638 663.83 341.028 662.774 340.622C661.719 340.215 660.593 340.021 659.463 340.049C658.943 340.048 658.424 340.102 657.915 340.21C657.362 339.612 656.689 339.136 655.941 338.813C655.193 338.49 654.385 338.328 653.57 338.336L617.242 339.274C616.941 339.285 616.641 339.322 616.346 339.385C615.55 339.534 614.794 339.851 614.13 340.316C613.467 340.781 612.91 341.382 612.499 342.08C612.087 342.778 611.83 343.556 611.744 344.362C611.658 345.167 611.746 345.982 612.002 346.751L618.315 393.112ZM656.802 354.063L659.181 345.549C659.451 344.566 659.457 343.528 659.199 342.542C659.314 342.541 659.416 342.487 659.531 342.486C661.162 342.453 662.739 343.067 663.918 344.194C665.096 345.321 665.779 346.87 665.817 348.5C665.856 350.13 665.246 351.708 664.121 352.889C662.997 354.07 661.45 354.758 659.82 354.8C658.766 354.833 657.722 354.578 656.802 354.063Z" fill="#2F2E41"/>
<path d="M616.346 339.385C617.12 343.809 625.822 346.919 636.285 346.378C645.906 345.935 653.773 342.558 655.214 338.555C654.681 338.397 654.126 338.323 653.57 338.336L617.243 339.274C616.941 339.285 616.641 339.322 616.346 339.385V339.385Z" fill="#3F3D56"/>
<path d="M638.202 373.481C638.25 373.469 638.296 373.449 638.337 373.422L643.465 370.066C643.527 370.025 643.578 369.97 643.614 369.905C643.649 369.84 643.667 369.767 643.668 369.693C643.668 369.619 643.649 369.546 643.614 369.481C643.579 369.416 643.528 369.361 643.466 369.32L638.135 365.83C638.086 365.797 638.031 365.775 637.974 365.764C637.916 365.753 637.857 365.753 637.799 365.765C637.742 365.777 637.687 365.8 637.639 365.833C637.59 365.866 637.549 365.908 637.517 365.957C637.484 366.006 637.462 366.061 637.451 366.119C637.441 366.176 637.441 366.235 637.453 366.293C637.465 366.35 637.489 366.405 637.522 366.453C637.555 366.501 637.597 366.543 637.647 366.575L642.408 369.692L637.849 372.676C637.761 372.734 637.696 372.821 637.666 372.922C637.636 373.023 637.642 373.131 637.685 373.228C637.727 373.325 637.802 373.403 637.897 373.449C637.992 373.495 638.1 373.507 638.202 373.481H638.202Z" fill="#313BAC"/>
<path d="M630.102 373.854C630.188 373.832 630.265 373.785 630.325 373.719C630.384 373.653 630.422 373.571 630.434 373.483C630.446 373.395 630.432 373.305 630.392 373.226C630.353 373.146 630.291 373.08 630.214 373.036L625.487 370.326L630.056 366.933C630.103 366.898 630.143 366.854 630.173 366.804C630.203 366.754 630.222 366.698 630.231 366.641C630.24 366.583 630.237 366.524 630.222 366.467C630.208 366.41 630.183 366.357 630.148 366.31C630.113 366.263 630.069 366.224 630.019 366.194C629.969 366.164 629.913 366.144 629.855 366.135C629.797 366.127 629.738 366.13 629.682 366.144C629.625 366.158 629.572 366.183 629.525 366.218L624.409 370.017C624.349 370.061 624.302 370.119 624.271 370.186C624.239 370.253 624.225 370.327 624.23 370.401C624.234 370.475 624.257 370.546 624.296 370.609C624.335 370.672 624.389 370.724 624.453 370.761L629.771 373.809C629.871 373.866 629.99 373.883 630.102 373.854V373.854Z" fill="#313BAC"/>
<path d="M637.692 376.422C637.735 376.411 637.776 376.394 637.814 376.37C637.864 376.34 637.908 376.3 637.943 376.253C637.977 376.205 638.002 376.152 638.016 376.095C638.03 376.038 638.032 375.979 638.023 375.921C638.014 375.863 637.994 375.808 637.964 375.758L630.693 363.808C630.632 363.707 630.533 363.635 630.418 363.607C630.303 363.58 630.182 363.599 630.081 363.66C629.98 363.722 629.908 363.82 629.88 363.935C629.852 364.05 629.87 364.171 629.932 364.272L637.202 376.222C637.252 376.303 637.326 376.366 637.414 376.402C637.502 376.438 637.6 376.445 637.692 376.422Z" fill="#313BAC"/>
<path d="M228.963 232.451H189.568C187.961 232.451 186.659 233.753 186.659 235.36V239.207C186.659 240.814 187.961 242.116 189.568 242.116H228.963C230.57 242.116 231.873 240.814 231.873 239.207V235.36C231.873 233.753 230.57 232.451 228.963 232.451Z" fill="#313BAC"/>
<path d="M251.926 251.782H166.606C164.999 251.782 163.696 253.085 163.696 254.692V258.539C163.696 260.146 164.999 261.448 166.606 261.448H251.926C253.533 261.448 254.836 260.146 254.836 258.539V254.692C254.836 253.085 253.533 251.782 251.926 251.782Z" fill="#E6E6E6"/>
<path d="M251.926 271.114H166.606C164.999 271.114 163.696 272.416 163.696 274.023V277.87C163.696 279.477 164.999 280.78 166.606 280.78H251.926C253.533 280.78 254.836 279.477 254.836 277.87V274.023C254.836 272.416 253.533 271.114 251.926 271.114Z" fill="#E6E6E6"/>
<path d="M259.158 335.848L259.352 336.458L259.362 336.478L265.179 354.158L271.87 374.532L284.46 412.819L284.582 418.767V418.787L285.518 466.631L282.924 473.117L285.843 483.751C285.843 483.751 284.501 467.677 277.301 476.908C273.223 482.154 268.453 487.522 264.538 492.554C270.243 494.862 276.04 496.95 281.928 498.817C283.199 499.224 284.48 499.61 285.762 499.996C286.036 500.078 286.311 500.159 286.585 500.24C306.104 506.011 326.282 509.253 346.626 509.888C347.684 509.919 348.721 509.939 349.728 509.96C350.084 509.97 350.43 509.98 350.775 509.98C351.914 509.99 353.043 510 354.182 510C356.481 510 358.769 509.966 361.047 509.899C377.907 509.424 394.669 507.157 411.05 503.138C410.938 496.377 410.633 488.478 410.196 480.039C409.992 475.901 405.426 471.418 405.152 467.087C404.959 463.834 409.057 460.774 408.843 457.469C407.46 437.126 405.731 444.935 404.45 430.529C404.318 429.116 404.196 427.764 404.084 426.473C403.26 417.221 402.691 411.436 402.691 411.436L408.162 376.962L416.755 322.835L416.094 321.747L415.352 321.381L370.026 298.953L367.565 292.65C366.848 290.834 365.604 289.274 363.993 288.171C362.382 287.067 360.477 286.471 358.525 286.459L328.667 286.337C327.117 286.33 325.589 286.692 324.207 287.394C322.826 288.096 321.632 289.117 320.724 290.373L312.64 301.566L259.158 335.848Z" fill="#3F3D56"/>
<path d="M291.345 404.299L284.582 418.766L279.965 428.648L272.023 470.22L268.046 474.439L264.64 459.503L228.983 467.417C227.814 460.921 228.67 467.637 227.948 460.51C228.151 460.307 228.365 460.104 228.579 459.9C229.148 459.372 229.626 458.873 229.616 458.396C229.209 433.813 230.429 391.977 240.619 366.632C242.215 362.494 244.319 358.57 246.884 354.951C247.087 354.676 247.28 354.402 247.474 354.127C252.172 347.549 255.141 341.073 259.352 336.468V336.458C259.378 336.436 259.402 336.413 259.423 336.386C259.438 336.379 259.452 336.368 259.463 336.356L288.385 321.025L289.626 355.876L290.511 380.926L291.345 404.299Z" fill="#3F3D56"/>
<path d="M395.633 408.408L404.08 426.478L407.028 432.77L414.969 474.338L418.932 478.547L422.346 463.614L423.951 463.285L452.886 457.294L461.32 484.072C463.221 480.905 463.97 477.18 463.44 473.525C462.91 469.871 461.135 466.511 458.413 464.014C457.837 463.493 457.357 462.986 457.371 462.506C457.851 433.593 456.082 380.797 440.105 359.068C435.031 352.172 431.987 345.303 427.558 340.505C427.544 340.491 427.544 340.478 427.53 340.478L416.751 322.833L416.093 321.75L415.353 321.38L395.633 408.408Z" fill="#3F3D56"/>
<path d="M344.458 277.842C366.396 277.842 384.18 260.063 384.18 238.131C384.18 216.199 366.396 198.42 344.458 198.42C322.52 198.42 304.736 216.199 304.736 238.131C304.736 260.063 322.52 277.842 344.458 277.842Z" fill="#FFB6B6"/>
<path d="M398.147 210.393C397.839 210.064 397.468 209.801 397.056 209.619C396.644 209.437 396.2 209.339 395.749 209.333L396.347 207.675C396.541 207.153 396.594 206.588 396.499 206.039C396.404 205.49 396.164 204.976 395.805 204.55C395.446 204.124 394.98 203.801 394.455 203.614C393.93 203.427 393.364 203.383 392.816 203.486L390.641 203.905L390.846 202.453C390.925 201.912 390.861 201.359 390.662 200.85C390.462 200.341 390.133 199.893 389.708 199.55C389.282 199.206 388.775 198.979 388.235 198.891C387.695 198.803 387.142 198.857 386.63 199.048C386.163 199.232 385.662 199.308 385.162 199.273C384.662 199.237 384.177 199.091 383.741 198.843C383.304 198.603 382.924 198.271 382.628 197.869C382.333 197.467 382.128 197.006 382.03 196.517L381.272 192.863L381.192 192.667C377.501 186.518 370.405 182.044 361.722 180.404C353.993 178.934 346.068 179.682 338.428 180.386C335.397 180.671 331.974 180.992 329.121 182.739C326.697 184.236 324.646 187.231 325.065 190.252C317.532 187.944 309.456 192.551 305.453 198.362C300.71 205.278 299.935 213.94 299.81 220.713C299.471 236.737 302.779 249.847 309.616 259.686C310.115 260.399 310.24 261.887 311.23 262.386L311.025 262.056C312.13 262.609 313.253 263.5 312.834 264.454C311.631 267.199 319.627 273.268 325.261 275.273C335.54 278.936 349.206 278.624 358.816 277.305L359.155 275.032C362.622 274.56 365.065 273.66 365.751 272.252C366.964 271.218 367.998 270.291 368.898 269.436L368.907 269.427C368.925 269.409 368.961 269.382 368.979 269.364C373.32 265.202 374.327 262.832 374.782 259.222C375.219 255.684 374.443 252.093 373.65 248.858C390.356 251.442 367.071 231.069 382.636 227.13C382.814 227.075 382.996 227.03 383.18 226.996C383.634 226.889 384.089 226.783 384.526 226.658C386.631 226.086 388.647 225.226 390.516 224.1C394.867 221.453 396.302 217.942 398.548 213.985C398.873 213.421 399.008 212.769 398.936 212.123C398.864 211.477 398.588 210.871 398.147 210.393V210.393Z" fill="#2F2E41"/>
<path d="M484.949 411.236C484.94 412.795 484.922 414.979 484.851 417.679C484.842 418.053 484.833 418.437 484.824 418.829C484.708 423.793 484.592 427.955 484.405 432.58C484.396 432.901 484.387 433.213 484.37 433.534C484.12 439.986 483.728 447.499 483.05 459.396C481.793 481.374 479.6 462.418 477.398 470.127C477.291 470.51 477.175 470.964 477.068 471.499C476.735 473.439 476.172 475.333 475.392 477.14C474.225 477.835 473.021 478.504 471.836 479.172C468.457 481.053 465.025 482.862 461.566 484.582C459.622 485.544 457.67 486.489 455.709 487.398C455.397 487.541 455.094 487.683 454.791 487.817C444.748 492.461 434.397 496.41 423.812 499.634C421.744 500.258 419.685 500.864 417.599 501.426C415.424 502.032 413.249 502.602 411.047 503.137C394.666 507.157 377.905 509.425 361.045 509.901C358.771 509.972 356.48 509.999 354.18 509.999C353.039 509.999 351.916 509.99 350.775 509.981C350.427 509.981 350.08 509.972 349.732 509.964C348.725 509.937 347.682 509.919 346.63 509.892C326.285 509.258 306.107 506.014 286.59 500.24L285.761 500C284.477 499.608 283.202 499.224 281.927 498.815C276.044 496.952 270.246 494.866 264.535 492.558C260.176 490.803 255.867 488.919 251.609 486.908C251.57 486.897 251.533 486.879 251.502 486.855C250.61 486.445 249.71 486.017 248.818 485.58C248.702 485.518 248.578 485.455 248.453 485.393C245.128 483.771 241.838 482.072 238.584 480.295C235.847 474.012 231.996 472.809 229.607 467.284C228.912 465.642 228.409 463.925 228.11 462.168C228.11 462.15 228.101 462.132 228.101 462.106C228.35 465.421 227.04 456.224 228.092 462.07C228.083 461.963 228.074 461.847 228.065 461.714C228.038 461.393 228.003 461.001 227.949 460.51C224.891 430.664 225.088 396.531 223.759 368.404C223.67 366.586 223.578 364.845 223.483 363.182C223.456 362.629 223.421 362.086 223.385 361.551C223.447 361.39 223.519 361.221 223.599 361.061C223.616 361.014 223.637 360.97 223.661 360.927C223.687 360.872 223.717 360.818 223.75 360.767C223.768 360.74 223.795 360.704 223.813 360.677C223.826 360.647 223.841 360.617 223.857 360.588C223.938 360.464 224.027 360.33 224.125 360.205C224.169 360.152 224.205 360.107 224.25 360.063C224.28 360.017 224.316 359.975 224.357 359.938C224.384 359.895 224.417 359.856 224.455 359.822C224.49 359.786 224.526 359.742 224.57 359.697C224.59 359.669 224.614 359.645 224.642 359.626C224.712 359.545 224.79 359.47 224.874 359.403C225.192 359.111 225.531 358.842 225.89 358.601C226.015 358.521 226.148 358.441 226.273 358.351C227.172 357.814 228.118 357.361 229.099 356.997C229.438 356.872 229.777 356.756 230.142 356.631C230.276 356.596 230.401 356.551 230.534 356.507C230.731 356.444 230.927 356.382 231.132 356.337C232.148 356.034 233.244 355.776 234.43 355.535C234.573 355.508 234.724 355.482 234.876 355.446C235.09 355.402 235.313 355.366 235.536 355.33C235.839 355.277 236.151 355.223 236.463 355.17C239.11 354.751 242.115 354.439 245.431 354.234C245.743 354.216 246.055 354.198 246.367 354.181C246.732 354.163 247.098 354.145 247.472 354.127C247.784 354.109 248.105 354.1 248.426 354.091C248.738 354.074 249.059 354.065 249.389 354.056C250.289 354.029 251.216 354.002 252.161 353.985C254.854 353.931 257.688 353.949 260.666 354.011C262.048 354.047 263.456 354.083 264.9 354.145C264.998 354.145 265.088 354.154 265.177 354.154C266.434 354.198 267.699 354.252 269.001 354.323C269.91 354.368 270.829 354.412 271.747 354.466C272.611 354.519 273.485 354.573 274.368 354.635C275.054 354.671 275.74 354.724 276.436 354.769C277.024 354.813 277.613 354.858 278.201 354.894L279.003 354.947C279.44 354.983 279.877 355.009 280.323 355.054C281.303 355.134 282.284 355.214 283.282 355.295C284.272 355.384 285.279 355.473 286.286 355.562C287.294 355.651 288.31 355.749 289.326 355.847C289.433 355.856 289.531 355.865 289.629 355.874C290.557 355.972 291.484 356.061 292.42 356.159C292.634 356.177 292.857 356.195 293.07 356.221C293.963 356.311 294.873 356.416 295.773 356.512C296.05 356.542 296.325 356.57 296.602 356.601C297.307 356.678 298.003 356.744 298.713 356.827C299.649 356.934 300.603 357.032 301.53 357.157C302.252 357.237 302.975 357.318 303.697 357.407C304.829 357.54 305.979 357.683 307.129 357.835C307.566 357.888 308.002 357.942 308.439 358.004C311.72 358.414 315.036 358.868 318.406 359.341C323.514 360.063 328.702 360.847 333.926 361.693C339.159 362.54 344.422 363.434 349.714 364.376C351.051 364.617 352.388 364.857 353.734 365.107C354.341 365.223 354.947 365.338 355.553 365.454C356.587 365.641 357.621 365.838 358.655 366.034C359.689 366.23 360.724 366.426 361.758 366.631C362.988 366.871 364.227 367.112 365.457 367.353C373.561 368.957 381.619 370.668 389.482 372.459C390.775 372.753 392.067 373.056 393.351 373.35C395.919 373.948 398.462 374.554 400.982 375.168C401.677 375.329 402.364 375.498 403.05 375.668C404.762 376.095 406.473 376.523 408.158 376.96L408.452 377.04C409.692 377.343 410.904 377.655 412.116 377.976C414.978 378.724 417.792 379.482 420.559 380.248C422.395 380.756 424.211 381.27 426.005 381.79C428.689 382.565 431.318 383.35 433.877 384.143C434.51 384.339 435.143 384.535 435.767 384.722C437.639 385.301 439.484 385.89 441.276 386.478C442.702 386.941 444.093 387.414 445.466 387.886C446.839 388.358 448.185 388.831 449.504 389.303C450.351 389.606 451.189 389.927 452.027 390.23C453.231 390.675 454.416 391.121 455.575 391.567C455.932 391.7 456.279 391.843 456.627 391.977C456.85 392.075 457.064 392.155 457.278 392.244C457.697 392.413 458.125 392.574 458.535 392.743C458.954 392.903 459.364 393.073 459.774 393.251C460.175 393.411 460.585 393.581 460.977 393.75C461.379 393.911 461.771 394.08 462.163 394.258C462.493 394.392 462.814 394.534 463.126 394.677C463.759 394.953 464.392 395.23 465.007 395.515C465.31 395.657 465.613 395.791 465.916 395.934L466.612 396.254C466.71 396.308 466.808 396.352 466.906 396.397C467.129 396.504 467.36 396.62 467.583 396.727C468.1 396.967 468.608 397.226 469.108 397.466C469.776 397.805 470.427 398.144 471.051 398.474C471.684 398.812 472.299 399.151 472.887 399.481C472.985 399.534 473.075 399.588 473.173 399.641C473.306 399.712 473.44 399.793 473.574 399.864C474.028 400.122 474.465 400.39 474.902 400.648C475.758 401.174 476.569 401.691 477.327 402.208C477.496 402.324 477.657 402.439 477.826 402.546C478.388 402.947 478.923 403.339 479.422 403.741C479.422 403.749 479.422 403.749 479.431 403.749C479.6 403.874 479.761 404.008 479.921 404.133C480.055 404.257 480.197 404.364 480.331 404.489C480.795 404.89 481.223 405.273 481.615 405.665C481.746 405.787 481.871 405.914 481.989 406.049C482.041 406.092 482.089 406.139 482.132 406.191C482.31 406.37 482.471 406.548 482.622 406.726C482.646 406.751 482.667 406.777 482.685 406.806C482.899 407.056 483.095 407.305 483.282 407.555C483.371 407.68 483.469 407.804 483.549 407.929C483.656 408.081 483.763 408.241 483.852 408.393C483.933 408.517 484.004 408.651 484.075 408.776C484.264 409.097 484.426 409.434 484.557 409.783C484.657 410.019 484.737 410.264 484.797 410.514C484.865 410.75 484.916 410.992 484.949 411.236V411.236Z" fill="#2F2E41"/>
<path opacity="0.2" d="M484.949 411.236C484.94 412.795 484.922 414.979 484.851 417.679C484.842 418.053 484.824 418.437 484.815 418.829C484.726 422.616 484.592 427.295 484.405 432.58C484.396 432.901 484.387 433.213 484.37 433.534C484.12 439.986 483.728 447.499 483.05 459.396C481.793 481.374 479.6 462.418 477.398 470.127C471.283 466.366 464.579 462.427 457.412 458.38C456.119 457.65 454.815 456.916 453.498 456.179C439.163 448.185 423.153 439.808 406.438 431.511C405.778 431.181 405.11 430.851 404.45 430.53C366.162 411.61 324.37 393.207 290.512 380.926C283.978 378.555 277.737 376.416 271.871 374.536C259.516 370.588 248.836 367.825 240.617 366.631C232.059 365.383 226.148 365.829 223.759 368.404C223.67 366.586 223.578 364.845 223.483 363.182C223.447 362.629 223.412 362.086 223.376 361.551C223.431 361.404 223.502 361.264 223.572 361.123C223.582 361.102 223.589 361.081 223.599 361.061C223.616 361.014 223.637 360.97 223.661 360.927C223.687 360.872 223.717 360.818 223.75 360.767C223.779 360.703 223.815 360.644 223.857 360.588C223.938 360.464 224.027 360.33 224.125 360.205C224.197 360.112 224.274 360.022 224.357 359.938C224.384 359.895 224.417 359.856 224.455 359.822C224.49 359.786 224.526 359.742 224.57 359.697C224.59 359.669 224.614 359.645 224.642 359.626C224.712 359.545 224.79 359.47 224.874 359.403C225.192 359.11 225.531 358.842 225.89 358.601C226.015 358.521 226.148 358.44 226.273 358.351C227.172 357.814 228.118 357.361 229.099 356.997C229.438 356.872 229.777 356.756 230.142 356.631C230.276 356.596 230.401 356.551 230.534 356.507C230.73 356.444 230.927 356.382 231.132 356.337C232.148 356.034 233.244 355.776 234.43 355.535C234.787 355.464 235.161 355.393 235.535 355.33C235.839 355.277 236.151 355.223 236.463 355.17C239.11 354.751 242.114 354.439 245.431 354.234C245.743 354.216 246.055 354.198 246.367 354.181C246.732 354.163 247.098 354.145 247.472 354.127C247.784 354.109 248.105 354.1 248.426 354.091C248.738 354.074 249.059 354.065 249.389 354.056C250.289 354.029 251.216 354.002 252.161 353.984C254.853 353.94 257.688 353.958 260.666 354.02C262.048 354.047 263.456 354.091 264.9 354.154C264.989 354.154 265.087 354.163 265.177 354.163C266.434 354.198 267.708 354.261 269.001 354.323C269.91 354.368 270.828 354.412 271.747 354.466C272.611 354.519 273.485 354.573 274.368 354.635C275.054 354.671 275.74 354.724 276.436 354.769C277.024 354.813 277.612 354.858 278.201 354.893C278.905 354.947 279.609 355 280.323 355.054C281.303 355.134 282.284 355.214 283.282 355.295C284.272 355.384 285.279 355.473 286.286 355.562C287.294 355.651 288.31 355.749 289.326 355.847C289.433 355.856 289.531 355.865 289.629 355.874C290.557 355.972 291.484 356.061 292.42 356.159C297.608 356.685 302.948 357.3 308.439 358.004C311.72 358.423 315.042 358.871 318.406 359.35C323.514 360.071 328.702 360.856 333.926 361.693C339.159 362.54 344.422 363.434 349.714 364.376C351.051 364.617 352.388 364.857 353.734 365.107C355.375 365.41 357.015 365.719 358.655 366.034C359.689 366.23 360.724 366.426 361.758 366.631C362.988 366.871 364.227 367.112 365.457 367.353C373.561 368.957 381.619 370.668 389.482 372.459C390.775 372.753 392.067 373.056 393.351 373.35C395.919 373.947 398.462 374.553 400.982 375.168C401.677 375.338 402.364 375.507 403.05 375.676C404.771 376.104 406.473 376.532 408.158 376.96V376.969C408.256 376.987 408.354 377.013 408.452 377.04C409.683 377.352 410.904 377.664 412.116 377.985C414.978 378.733 417.792 379.488 420.559 380.248C422.395 380.765 424.214 381.273 426.005 381.79C428.689 382.574 431.319 383.359 433.877 384.143C434.51 384.339 435.143 384.535 435.767 384.722C437.639 385.31 439.475 385.896 441.276 386.478C442.703 386.941 444.093 387.414 445.466 387.886C446.839 388.358 448.185 388.831 449.504 389.303C450.36 389.606 451.198 389.918 452.027 390.221C453.24 390.667 454.416 391.112 455.575 391.567C455.932 391.7 456.279 391.843 456.627 391.977C457.278 392.226 457.911 392.485 458.535 392.743C458.954 392.903 459.364 393.073 459.774 393.251C460.175 393.411 460.585 393.581 460.977 393.75C461.379 393.911 461.771 394.08 462.163 394.258C462.493 394.392 462.814 394.534 463.126 394.677C463.759 394.953 464.392 395.23 465.007 395.515C465.31 395.657 465.613 395.791 465.916 395.934L466.612 396.254C466.71 396.308 466.808 396.352 466.906 396.397C467.663 396.753 468.394 397.11 469.108 397.466C469.776 397.805 470.427 398.144 471.051 398.474C471.791 398.866 472.495 399.249 473.173 399.641C473.306 399.712 473.44 399.792 473.574 399.864C474.028 400.122 474.465 400.39 474.902 400.648C475.758 401.174 476.569 401.691 477.327 402.208C478.076 402.725 478.771 403.233 479.422 403.741C479.422 403.749 479.422 403.749 479.431 403.749C479.743 403.999 480.046 404.248 480.331 404.489C480.795 404.89 481.223 405.273 481.615 405.665C481.746 405.787 481.871 405.914 481.989 406.049C482.041 406.092 482.089 406.139 482.132 406.191C482.319 406.396 482.506 406.601 482.685 406.806C482.899 407.056 483.095 407.305 483.282 407.555C483.371 407.68 483.469 407.804 483.549 407.929C483.656 408.081 483.763 408.241 483.852 408.393C483.933 408.517 484.004 408.651 484.075 408.776C484.265 409.097 484.426 409.434 484.557 409.783C484.654 410.02 484.735 410.265 484.797 410.514C484.865 410.75 484.916 410.992 484.949 411.236V411.236Z" fill="black"/>
</svg>
